<?xml version="1.0" encoding="UTF-8" standalone="no"?>
<svg
   viewBox="0 0 36 36"
   version="1.1"
   id="svg4"
   sodipodi:docname="enveloppe.svg"
   inkscape:version="1.3.2 (091e20ef0f, 2023-11-25, custom)"
   xmlns:inkscape="http://www.inkscape.org/namespaces/inkscape"
   xmlns:sodipodi="http://sodipodi.sourceforge.net/DTD/sodipodi-0.dtd"
   xmlns="http://www.w3.org/2000/svg"
   xmlns:svg="http://www.w3.org/2000/svg">
  <defs
     id="defs4" />
  <sodipodi:namedview
     id="namedview4"
     pagecolor="#505050"
     bordercolor="#ffffff"
     borderopacity="1"
     inkscape:showpageshadow="0"
     inkscape:pageopacity="0"
     inkscape:pagecheckerboard="1"
     inkscape:deskcolor="#d1d1d1"
     inkscape:zoom="14.211847"
     inkscape:cx="9.8861182"
     inkscape:cy="21.49615"
     inkscape:window-width="1504"
     inkscape:window-height="949"
     inkscape:window-x="0"
     inkscape:window-y="0"
     inkscape:window-maximized="0"
     inkscape:current-layer="svg4" />
  <path
     fill="#CCD6DD"
     d="M36 27c0 2.209-1.791 4-4 4H4c-2.209 0-4-1.791-4-4V9c0-2.209 1.791-4 4-4h28c2.209 0 4 1.791 4 4v18z"
     id="path1" />
  <path
     fill="#99AAB5"
     d="M11.95 17.636L.637 28.949c-.027.028-.037.063-.06.091.34.57.814 1.043 1.384 1.384.029-.023.063-.033.09-.06L13.365 19.05c.39-.391.39-1.023 0-1.414-.392-.391-1.024-.391-1.415 0M35.423 29.04c-.021-.028-.033-.063-.06-.09L24.051 17.636c-.392-.391-1.024-.391-1.415 0-.391.392-.391 1.024 0 1.414l11.313 11.314c.026.026.062.037.09.06.571-.34 1.044-.814 1.384-1.384"
     id="path2" />
  <path
     fill="#99AAB5"
     d="M32 5H4C1.791 5 0 6.791 0 9v1.03l14.528 14.496c1.894 1.893 4.988 1.893 6.884 0L36 10.009V9c0-2.209-1.791-4-4-4z"
     id="path3" />
  <path
     fill="#E1E8ED"
     d="M32 5H4C2.412 5 1.051 5.934.405 7.275l14.766 14.767c1.562 1.562 4.096 1.562 5.657 0L35.595 7.275C34.949 5.934 33.589 5 32 5z"
     id="path4" />
</svg>
